<?xml version="1.0" encoding="utf-8"?>
<svg version="1.2" baseProfile="tiny" id="Layer_1" xmlns:sketch="http://www.bohemiancoding.com/sketch/ns"
	 xmlns="http://www.w3.org/2000/svg" xmlns:xlink="http://www.w3.org/1999/xlink" x="0px" y="0px" width="264.5px" height="115px"
	 viewBox="-41.5 -103.5 264.5 115" overflow="inherit" xml:space="preserve">
<g>
	<g id="logo-django" transform="translate(-8.000000, -5.000000)" sketch:type="MSArtboardGroup">
		<path id="Shape" sketch:type="MSShapeGroup" d="M-21.24-19.5h5.691V6.583c-2.915,0.552-5.061,0.769-7.383,0.769
			C-29.882,7.344-33.5,4.239-33.5-1.725c0-5.746,3.838-9.475,9.785-9.475c0.923,0,1.626,0.072,2.476,0.29V-19.5L-21.24-19.5z
			 M-21.24-6.375c-0.667-0.217-1.216-0.29-1.919-0.29c-2.878,0-4.541,1.756-4.541,4.833c0,2.996,1.589,4.65,4.504,4.65
			c0.63,0,1.143-0.035,1.956-0.145V-6.375L-21.24-6.375z M-6.504-10.801V2.258c0,4.497-0.337,6.66-1.326,8.524
			c-0.923,1.793-2.139,2.923-4.651,4.172l-5.28-2.489c2.512-1.166,3.728-2.198,4.504-3.772c0.813-1.61,1.069-3.475,1.069-8.379
			v-11.115H-6.504z M-12.188-19.471h5.691v5.782h-5.691V-19.471z M-3.07-9.517c2.513-1.168,4.915-1.683,7.537-1.683
			c2.922,0,4.84,0.769,5.691,2.271c0.476,0.842,0.63,1.938,0.63,4.281V6.799C8.24,7.163,5.024,7.422,2.665,7.422
			c-4.768,0-6.907-1.646-6.907-5.302c0-3.954,2.843-5.782,9.822-6.364v-1.24c0-1.023-0.52-1.393-1.956-1.393
			c-2.102,0-4.468,0.587-6.687,1.719L-3.07-9.517z M5.836-0.558C2.072-0.195,0.849,0.393,0.849,1.858
			c0,1.098,0.703,1.611,2.256,1.611c0.85,0,1.626-0.072,2.731-0.254L5.836-0.558L5.836-0.558z M13.556-9.923
			c3.362-0.878,6.129-1.277,8.934-1.277c2.916,0,5.025,0.66,6.277,1.937c1.178,1.204,1.553,2.525,1.553,5.34V7.126h-5.691V-3.698
			c0-2.162-0.739-2.967-2.768-2.967c-0.777,0-1.479,0.073-2.621,0.406V7.127h-5.684V-9.923z M32.533,10.202
			c1.99,1.023,3.984,1.495,6.093,1.495c3.728,0,5.317-1.501,5.317-5.085V6.502c-1.105,0.544-2.22,0.77-3.691,0.77
			c-4.987,0-8.158-3.258-8.158-8.416c0-6.406,4.694-10.026,13-10.026c2.438,0,4.694,0.254,7.426,0.805L50.57-6.302
			c-1.514-0.291-0.124-0.044-1.266-0.152v0.587l0.073,2.38l0.036,3.076c0.037,0.77,0.037,1.537,0.074,2.307v1.538
			c0,4.831-0.41,7.096-1.627,8.967c-1.771,2.742-4.84,4.1-9.199,4.1c-2.219,0-4.139-0.327-6.129-1.098V10.202L32.533,10.202z
			 M43.834-6.629H43.65h-0.41c-1.106-0.036-2.402,0.254-3.289,0.806c-1.361,0.769-2.064,2.162-2.064,4.135
			c0,2.814,1.406,4.425,3.919,4.425c0.775,0,1.406-0.145,2.139-0.362V1.967V0.43c0-0.66-0.038-1.393-0.038-2.162l-0.035-2.597
			l-0.037-1.865V-6.629z M61.346-11.272c5.683,0,9.154,3.548,9.154,9.294c0,5.891-3.617,9.583-9.383,9.583
			c-5.69,0-9.199-3.547-9.199-9.255C51.928-7.58,55.545-11.272,61.346-11.272z M61.229,3.063c2.182,0,3.471-1.791,3.471-4.904
			c0-3.076-1.253-4.904-3.434-4.904c-2.256,0-3.547,1.792-3.547,4.904C57.719,1.272,59.016,3.063,61.229,3.063L61.229,3.063z"/>
	</g>
	<path fill="#999999" d="M81.955-4.702l3,0.39c-0.328,2.068-1.167,3.687-2.518,4.856s-3.009,1.755-4.975,1.755
		c-2.464,0-4.444-0.806-5.941-2.416c-1.498-1.61-2.246-3.918-2.246-6.925c0-1.943,0.321-3.645,0.966-5.102
		c0.645-1.458,1.625-2.551,2.941-3.28s2.749-1.093,4.297-1.093c1.955,0,3.554,0.494,4.798,1.483c1.242,0.989,2.039,2.393,2.39,4.212
		L81.7-10.364c-0.282-1.209-0.782-2.119-1.5-2.729c-0.718-0.61-1.585-0.915-2.602-0.915c-1.537,0-2.786,0.551-3.747,1.653
		c-0.96,1.102-1.44,2.845-1.44,5.229c0,2.418,0.463,4.175,1.39,5.272c0.927,1.096,2.137,1.645,3.628,1.645
		c1.198,0,2.198-0.367,3-1.103C81.231-2.046,81.74-3.176,81.955-4.702z"/>
	<path fill="#999999" d="M85.388-7.109c0-3.333,0.927-5.803,2.78-7.408c1.548-1.333,3.436-2,5.662-2
		c2.475,0,4.497,0.811,6.068,2.433c1.57,1.622,2.356,3.862,2.356,6.721c0,2.317-0.348,4.139-1.043,5.466
		c-0.694,1.328-1.706,2.359-3.034,3.094S95.4,2.299,93.83,2.299c-2.521,0-4.558-0.809-6.111-2.425
		C86.165-1.741,85.388-4.069,85.388-7.109z M88.524-7.109c0,2.305,0.502,4.032,1.509,5.179c1.005,1.146,2.271,1.721,3.797,1.721
		c1.514,0,2.774-0.577,3.78-1.729s1.509-2.91,1.509-5.272c0-2.226-0.506-3.913-1.518-5.06c-1.012-1.147-2.269-1.721-3.771-1.721
		c-1.525,0-2.792,0.571-3.797,1.712C89.026-11.138,88.524-9.415,88.524-7.109z"/>
	<path fill="#999999" d="M104.231,3.384l2.966,0.44c0.124,0.915,0.469,1.582,1.034,2c0.757,0.565,1.791,0.848,3.103,0.848
		c1.412,0,2.503-0.282,3.271-0.848s1.288-1.356,1.56-2.373c0.158-0.622,0.231-1.927,0.22-3.916
		c-1.333,1.571-2.994,2.356-4.983,2.356c-2.475,0-4.391-0.893-5.746-2.679c-1.356-1.785-2.034-3.927-2.034-6.424
		c0-1.718,0.311-3.303,0.932-4.755c0.622-1.452,1.523-2.574,2.704-3.365s2.568-1.187,4.161-1.187c2.125,0,3.877,0.859,5.256,2.577
		v-2.17h2.813v15.561c0,2.803-0.285,4.789-0.856,5.959c-0.57,1.17-1.475,2.094-2.712,2.771s-2.761,1.017-4.568,1.017
		c-2.147,0-3.882-0.482-5.204-1.449C104.824,6.783,104.186,5.328,104.231,3.384z M106.757-7.431c0,2.362,0.469,4.085,1.407,5.17
		c0.938,1.085,2.113,1.628,3.525,1.628c1.401,0,2.577-0.54,3.526-1.619s1.424-2.771,1.424-5.077c0-2.204-0.489-3.865-1.467-4.984
		c-0.978-1.119-2.155-1.678-3.534-1.678c-1.356,0-2.509,0.551-3.458,1.653C107.231-11.237,106.757-9.601,106.757-7.431z"/>
	<path fill="#999999" d="M126.38,1.892l-5.51-18.002h3.153l2.864,10.391l1.068,3.865c0.045-0.192,0.355-1.43,0.933-3.712
		l2.864-10.544h3.137l2.694,10.442l0.898,3.441l1.034-3.476l3.086-10.408h2.966L139.94,1.892h-3.17l-2.864-10.781l-0.695-3.068
		l-3.645,13.85H126.38z"/>
	<path fill="#999999" d="M147.086,1.892v-24.851h3.052v8.917c1.424-1.65,3.221-2.475,5.391-2.475c1.333,0,2.492,0.263,3.475,0.788
		c0.983,0.525,1.687,1.252,2.11,2.178c0.424,0.927,0.636,2.271,0.636,4.035V1.892h-3.051V-9.516c0-1.526-0.331-2.636-0.992-3.331
		c-0.661-0.695-1.596-1.042-2.805-1.042c-0.904,0-1.755,0.234-2.552,0.703c-0.797,0.469-1.364,1.105-1.703,1.907
		c-0.34,0.803-0.509,1.91-0.509,3.323v9.849H147.086z"/>
	<path fill="#999999" d="M177.677-3.906l3.153,0.391c-0.498,1.842-1.419,3.271-2.764,4.288c-1.345,1.018-3.062,1.526-5.153,1.526
		c-2.633,0-4.721-0.812-6.264-2.433c-1.542-1.622-2.313-3.896-2.313-6.823c0-3.028,0.779-5.379,2.339-7.052s3.583-2.509,6.069-2.509
		c2.407,0,4.373,0.819,5.898,2.458c1.526,1.639,2.289,3.944,2.289,6.916c0,0.181-0.006,0.452-0.018,0.813h-13.425
		c0.112,1.978,0.672,3.492,1.678,4.543s2.26,1.577,3.764,1.577c1.118,0,2.073-0.294,2.864-0.882S177.213-2.617,177.677-3.906z
		 M167.658-8.838h10.053c-0.136-1.514-0.521-2.65-1.153-3.407c-0.972-1.175-2.231-1.763-3.78-1.763
		c-1.401,0-2.579,0.469-3.534,1.407C168.288-11.663,167.76-10.409,167.658-8.838z"/>
	<path fill="#999999" d="M195.943-3.906l3.153,0.391c-0.498,1.842-1.419,3.271-2.764,4.288c-1.345,1.018-3.062,1.526-5.153,1.526
		c-2.633,0-4.721-0.812-6.264-2.433c-1.542-1.622-2.313-3.896-2.313-6.823c0-3.028,0.779-5.379,2.339-7.052s3.583-2.509,6.069-2.509
		c2.407,0,4.373,0.819,5.898,2.458c1.526,1.639,2.289,3.944,2.289,6.916c0,0.181-0.006,0.452-0.018,0.813h-13.425
		c0.112,1.978,0.672,3.492,1.678,4.543s2.26,1.577,3.764,1.577c1.118,0,2.073-0.294,2.864-0.882S195.479-2.617,195.943-3.906z
		 M185.925-8.838h10.053c-0.136-1.514-0.521-2.65-1.153-3.407c-0.972-1.175-2.231-1.763-3.78-1.763
		c-1.401,0-2.579,0.469-3.534,1.407C186.555-11.663,186.026-10.409,185.925-8.838z"/>
	<path fill="#999999" d="M201.817,1.892v-24.851h3.051V1.892H201.817z"/>
	<path fill="#999999" d="M207.337-3.482l3.017-0.475c0.17,1.21,0.642,2.137,1.416,2.78c0.773,0.645,1.856,0.967,3.246,0.967
		c1.401,0,2.441-0.286,3.119-0.856s1.017-1.24,1.017-2.009c0-0.689-0.299-1.231-0.898-1.627c-0.418-0.271-1.457-0.616-3.119-1.034
		c-2.237-0.565-3.788-1.054-4.652-1.467c-0.865-0.412-1.521-0.983-1.967-1.712s-0.67-1.534-0.67-2.416
		c0-0.802,0.184-1.545,0.551-2.229s0.867-1.251,1.501-1.704c0.475-0.35,1.121-0.647,1.94-0.89c0.819-0.243,1.698-0.364,2.636-0.364
		c1.413,0,2.653,0.203,3.722,0.61c1.067,0.407,1.855,0.958,2.364,1.653c0.509,0.695,0.858,1.625,1.051,2.789l-2.983,0.407
		c-0.136-0.926-0.528-1.649-1.178-2.169c-0.65-0.52-1.568-0.78-2.755-0.78c-1.401,0-2.401,0.231-3,0.695
		c-0.6,0.463-0.898,1.006-0.898,1.627c0,0.396,0.124,0.751,0.373,1.068c0.248,0.328,0.638,0.599,1.169,0.813
		c0.306,0.113,1.204,0.373,2.695,0.78c2.158,0.577,3.664,1.048,4.518,1.416c0.854,0.368,1.523,0.901,2.009,1.602
		c0.486,0.701,0.729,1.571,0.729,2.61c0,1.018-0.297,1.975-0.891,2.873c-0.593,0.898-1.449,1.594-2.567,2.086
		c-1.119,0.491-2.385,0.737-3.798,0.737c-2.339,0-4.122-0.486-5.348-1.458C208.458-0.13,207.676-1.572,207.337-3.482z"/>
	<g>
		<path fill="#B665BA" d="M46.351-44.263l-1.204-4.51c-0.261-0.946,0.047-1.938,0.778-2.599c1.017-0.923,1.983-1.938,2.858-3.048
			c0.615-0.756,1.559-1.133,2.529-0.946l4.701,0.897c1.156,0.213,2.312-0.449,2.715-1.536l1.086-2.952l1.087-2.953
			c0.423-1.109-0.024-2.338-1.063-2.929l-4.04-2.338c-0.849-0.497-1.32-1.418-1.273-2.385c0.07-1.418,0.022-2.811-0.12-4.182
			c-0.118-0.968,0.309-1.89,1.112-2.433l3.967-2.693c0.969-0.662,1.325-1.914,0.851-2.977l-1.299-2.834l-1.298-2.834
			c-0.474-1.063-1.655-1.607-2.811-1.322l-4.489,1.25c-0.944,0.262-1.961-0.047-2.619-0.778c-0.926-1.015-1.942-1.984-3.027-2.858
			c-0.757-0.614-1.132-1.561-0.944-2.528l0.898-4.7c0.213-1.158-0.452-2.315-1.535-2.718l-2.953-1.086l-2.953-1.086
			c-1.111-0.426-2.339,0.023-2.928,1.062l-2.315,4.017c-0.497,0.85-1.44,1.346-2.409,1.274c-1.466-0.094-2.905-0.047-4.324,0.143
			c-0.969,0.118-1.938-0.308-2.479-1.111l-2.646-3.92c-0.662-0.969-1.914-1.322-2.977-0.828l-2.834,1.301l-2.833,1.298
			c-1.064,0.472-1.608,1.654-1.325,2.811l1.228,4.583c0.26,0.944-0.045,1.936-0.779,2.574c-1.039,0.945-1.984,1.961-2.857,3.071
			c-0.589,0.755-1.583,1.134-2.528,0.945l-4.629-0.897c-1.135-0.212-2.269,0.425-2.716,1.465l-1.087,2.952l-1.087,2.953
			C-4.649-78.537-4.2-77.31-3.161-76.72l4.089,2.363c0.849,0.498,1.323,1.395,1.275,2.362c-0.073,1.418-0.024,2.812,0.143,4.206
			c0.117,0.969-0.307,1.914-1.11,2.458l-3.923,2.669c-0.969,0.66-1.322,1.913-0.827,2.977l1.301,2.834l1.298,2.834
			c0.471,1.062,1.653,1.607,2.809,1.323l4.582-1.228c0.946-0.261,1.939,0.047,2.576,0.779c0.944,1.04,1.96,1.984,3.072,2.858
			c0.755,0.59,1.131,1.583,0.944,2.528l-0.898,4.629c-0.213,1.158,0.45,2.315,1.537,2.717l2.951,1.086l2.952,1.087
			c1.111,0.424,2.34-0.023,2.93-1.063l2.361-4.087c0.495-0.848,1.418-1.323,2.387-1.298c1.344,0.048,2.667,0,3.991-0.142
			c0.97-0.118,1.915,0.307,2.457,1.11l2.695,3.969c0.659,0.967,1.91,1.322,2.976,0.827l2.833-1.3l2.834-1.299
			C46.09-41.948,46.656-43.129,46.351-44.263z M41.391-66.16c-2.575,7.205-10.488,10.961-17.69,8.411
			c-7.207-2.552-10.963-10.466-8.411-17.669c2.549-7.204,10.464-10.96,17.669-8.411C40.187-81.278,43.94-73.364,41.391-66.16z"/>
		<path fill="#B665BA" d="M84.902-37.625l-2.74-0.472c-0.568-0.095-1.04-0.52-1.206-1.087c-0.237-0.78-0.542-1.559-0.92-2.315
			c-0.261-0.52-0.214-1.134,0.117-1.606l1.676-2.315c0.404-0.567,0.333-1.37-0.141-1.842l-1.322-1.323l-1.324-1.321
			c-0.496-0.495-1.273-0.566-1.843-0.167l-2.268,1.607c-0.471,0.33-1.11,0.378-1.604,0.095c-0.733-0.401-1.514-0.709-2.291-0.993
			c-0.545-0.188-0.945-0.638-1.039-1.204l-0.451-2.812c-0.117-0.685-0.709-1.205-1.393-1.205h-1.865h-1.868
			c-0.684,0-1.3,0.495-1.417,1.181l-0.447,2.739c-0.095,0.591-0.521,1.04-1.088,1.229c-0.78,0.235-1.559,0.542-2.291,0.922
			c-0.521,0.26-1.133,0.212-1.605-0.118l-2.318-1.677c-0.565-0.402-1.366-0.332-1.838,0.14l-1.325,1.324l-1.321,1.323
			c-0.499,0.496-0.568,1.274-0.168,1.841l1.584,2.27c0.331,0.472,0.352,1.111,0.096,1.629c-0.402,0.779-0.756,1.559-1.016,2.364
			c-0.189,0.542-0.64,0.966-1.229,1.062l-2.788,0.449c-0.685,0.119-1.205,0.709-1.205,1.394v1.866v1.866
			c0,0.685,0.496,1.298,1.183,1.417l2.788,0.497c0.564,0.095,1.037,0.52,1.205,1.062c0.259,0.804,0.563,1.561,0.942,2.317
			c0.26,0.52,0.214,1.133-0.118,1.606l-1.653,2.292c-0.402,0.565-0.332,1.323,0.118,1.843l1.324,1.322l1.322,1.324
			c0.496,0.495,1.276,0.566,1.843,0.165l2.291-1.63c0.475-0.331,1.085-0.377,1.604-0.095c0.76,0.377,1.515,0.709,2.313,0.969
			c0.547,0.189,0.972,0.638,1.064,1.205l0.451,2.788c0.116,0.685,0.709,1.204,1.394,1.204h1.866h1.866
			c0.681,0,1.3-0.495,1.415-1.182l0.497-2.786c0.094-0.568,0.519-1.04,1.063-1.207c0.802-0.259,1.559-0.566,2.314-0.944
			c0.521-0.258,1.134-0.213,1.606,0.119l2.29,1.653c0.567,0.401,1.37,0.33,1.843-0.143L80.2-20.31l1.322-1.324
			c0.498-0.497,0.567-1.276,0.166-1.842l-1.63-2.292c-0.33-0.472-0.353-1.085-0.096-1.606c0.356-0.708,0.684-1.441,0.92-2.198
			c0.192-0.544,0.64-0.968,1.23-1.062l2.812-0.448c0.685-0.12,1.205-0.71,1.205-1.395v-1.866v-1.866
			C86.081-36.892,85.585-37.507,84.902-37.625z M71.933-28.767c-3.187,3.259-8.409,3.307-11.669,0.118
			c-3.259-3.189-3.308-8.409-0.118-11.669c3.188-3.259,8.41-3.306,11.669-0.118C75.074-37.247,75.122-32.026,71.933-28.767z"/>
		<path fill="#B665BA" d="M109.702-50.474l-1.817-0.591c-0.379-0.119-0.661-0.45-0.734-0.852c-0.091-0.566-0.233-1.109-0.398-1.653
			c-0.118-0.378-0.048-0.803,0.234-1.086l1.348-1.417c0.331-0.356,0.355-0.897,0.071-1.276l-0.781-1.039l-0.777-1.04
			c-0.284-0.401-0.804-0.496-1.251-0.282l-1.703,0.872c-0.354,0.19-0.78,0.143-1.109-0.094c-0.475-0.33-0.97-0.637-1.465-0.897
			c-0.354-0.167-0.59-0.52-0.59-0.921l-0.049-1.96c-0.023-0.473-0.376-0.875-0.852-0.946l-1.274-0.188l-1.277-0.19
			c-0.468-0.071-0.917,0.213-1.084,0.685l-0.568,1.819c-0.118,0.376-0.448,0.661-0.846,0.732c-0.57,0.095-1.114,0.237-1.657,0.402
			c-0.377,0.117-0.803,0.047-1.085-0.237l-1.416-1.346c-0.355-0.331-0.898-0.355-1.279-0.07l-1.038,0.778l-1.039,0.781
			c-0.402,0.285-0.496,0.804-0.285,1.252l0.876,1.701c0.19,0.354,0.141,0.805-0.096,1.108c-0.356,0.498-0.662,0.994-0.923,1.512
			c-0.163,0.355-0.542,0.592-0.942,0.614l-1.937,0.048c-0.474,0.022-0.875,0.378-0.946,0.85l-0.188,1.276l-0.188,1.276
			c-0.071,0.471,0.211,0.921,0.683,1.086l1.844,0.59c0.378,0.119,0.66,0.451,0.707,0.85c0.096,0.568,0.238,1.135,0.426,1.678
			c0.12,0.379,0.049,0.803-0.234,1.087l-1.347,1.393c-0.33,0.354-0.355,0.875-0.094,1.251l0.776,1.041l0.781,1.039
			c0.284,0.402,0.802,0.496,1.254,0.285l1.723-0.898c0.354-0.189,0.78-0.142,1.111,0.095c0.471,0.33,0.966,0.636,1.486,0.874
			c0.356,0.165,0.594,0.519,0.594,0.921l0.043,1.937c0.024,0.472,0.381,0.874,0.852,0.945l1.276,0.188l1.276,0.19
			c0.471,0.071,0.921-0.213,1.085-0.686l0.591-1.842c0.117-0.377,0.448-0.662,0.851-0.709c0.568-0.094,1.136-0.237,1.677-0.426
			c0.378-0.118,0.804-0.046,1.087,0.236l1.394,1.349c0.354,0.328,0.898,0.352,1.275,0.068l1.041-0.778l1.039-0.78
			c0.401-0.284,0.494-0.804,0.281-1.252l-0.896-1.726c-0.188-0.354-0.144-0.778,0.093-1.11c0.307-0.448,0.592-0.92,0.852-1.416
			c0.189-0.355,0.544-0.59,0.923-0.59l1.962-0.048c0.469-0.024,0.87-0.377,0.941-0.85l0.191-1.277l0.187-1.274
			C110.46-49.861,110.178-50.309,109.702-50.474z M100.018-45.656c-2.48,1.914-6.045,1.464-7.957-1.04
			c-1.914-2.481-1.466-6.047,1.038-7.96c2.478-1.913,6.046-1.464,7.959,1.039C102.972-51.137,102.5-47.569,100.018-45.656z"/>
	</g>
</g>
</svg>
