<?xml version="1.0" encoding="utf-8"?>
<!-- Generator: Adobe Illustrator 15.1.0, SVG Export Plug-In . SVG Version: 6.00 Build 0)  -->
<!DOCTYPE svg PUBLIC "-//W3C//DTD SVG 1.1 Basic//EN" "http://www.w3.org/Graphics/SVG/1.1/DTD/svg11-basic.dtd">
<svg version="1.1" baseProfile="basic" id="Layer_1" xmlns:sketch="http://www.bohemiancoding.com/sketch/ns"
	 xmlns="http://www.w3.org/2000/svg" xmlns:xlink="http://www.w3.org/1999/xlink" x="0px" y="0px" width="250px" height="115px"
	 viewBox="8.5 0 250 115" xml:space="preserve">
<g>
	<g id="logo-django" transform="translate(-8.000000, -5.000000)" sketch:type="MSArtboardGroup">
		<path id="Shape" sketch:type="MSShapeGroup" fill="#FFFFFF" d="M36.909,81.254h4.964v22.73c-2.546,0.484-4.415,0.671-6.44,0.671
			c-6.059-0.007-9.214-2.715-9.214-7.904c0-5.014,3.345-8.271,8.532-8.271c0.806,0,1.415,0.065,2.16,0.254v-7.479H36.909z
			 M36.909,92.696c-0.583-0.2-1.062-0.256-1.672-0.256c-2.511,0-3.961,1.529-3.961,4.213c0,2.606,1.389,4.055,3.927,4.055
			c0.549,0,0.996-0.033,1.707-0.134V92.696L36.909,92.696z M49.754,88.835v11.381c0,3.928-0.291,5.805-1.151,7.435
			c-0.806,1.562-1.869,2.553-4.056,3.64l-4.604-2.18c2.187-1.009,3.25-1.908,3.928-3.283c0.709-1.406,0.933-3.022,0.933-7.299
			v-9.693H49.754z M44.803,81.267h4.957v5.047h-4.957V81.267z M52.752,89.954c2.188-1.026,4.287-1.475,6.568-1.475
			c2.553,0,4.225,0.671,4.964,1.986c0.413,0.729,0.549,1.688,0.549,3.731v9.974c-2.221,0.322-5.024,0.549-7.083,0.549
			c-4.157,0-6.02-1.44-6.02-4.617c0-3.451,2.48-5.047,8.566-5.558v-1.08c0-0.892-0.454-1.206-1.707-1.206
			c-1.835,0-3.9,0.502-5.83,1.495L52.752,89.954z M60.519,97.762c-3.284,0.322-4.353,0.825-4.353,2.111
			c0,0.949,0.616,1.396,1.97,1.396c0.738,0,1.416-0.055,2.383-0.221V97.762L60.519,97.762z M67.25,89.593
			c2.931-0.758,5.341-1.113,7.785-1.113c2.547,0,4.381,0.583,5.478,1.695c1.021,1.046,1.352,2.199,1.352,4.652v9.633h-4.96v-9.438
			c0-1.875-0.649-2.581-2.417-2.581c-0.678,0-1.286,0.056-2.281,0.351v11.67H67.25V89.593z M83.791,107.141
			c1.738,0.891,3.473,1.302,5.314,1.302c3.25,0,4.638-1.309,4.638-4.432v-0.087c-0.967,0.468-1.937,0.671-3.223,0.671
			c-4.346,0-7.108-2.851-7.108-7.348c0-5.582,4.089-8.74,11.334-8.74c2.126,0,4.089,0.221,6.473,0.703l-1.702,3.541
			c-1.318-0.256-0.108-0.039-1.103-0.128v0.516l0.067,2.065l0.027,2.681c0.034,0.672,0.034,1.34,0.068,2.015v1.348
			c0,4.212-0.359,6.184-1.423,7.817c-1.542,2.387-4.217,3.574-8.017,3.574c-1.937,0-3.609-0.288-5.348-0.961L83.791,107.141
			L83.791,107.141z M93.649,92.476h-0.164h-0.358c-0.962-0.035-2.092,0.221-2.865,0.69c-1.191,0.67-1.799,1.891-1.799,3.606
			c0,2.452,1.224,3.858,3.413,3.858c0.676,0,1.225-0.119,1.869-0.306V99.96v-1.339c0-0.569-0.036-1.205-0.036-1.877l-0.032-2.266
			l-0.028-1.628L93.649,92.476L93.649,92.476z M108.917,88.427c4.955,0,7.982,3.09,7.982,8.103c0,5.136-3.155,8.347-8.187,8.347
			c-4.956,0-8.017-3.09-8.017-8.069C100.706,91.637,103.859,88.427,108.917,88.427z M108.816,100.921
			c1.902,0,3.026-1.562,3.026-4.276c0-2.682-1.097-4.277-2.998-4.277c-1.964,0-3.09,1.562-3.09,4.277
			C105.754,99.358,106.886,100.921,108.816,100.921L108.816,100.921z"/>
	</g>
	<path fill="#FFFFFF" d="M125.862,93.513l2.611,0.333c-0.283,1.805-1.018,3.221-2.192,4.233c-1.182,1.025-2.626,1.536-4.343,1.536
		c-2.142,0-3.871-0.7-5.174-2.107c-1.31-1.406-1.96-3.42-1.96-6.036c0-1.7,0.278-3.18,0.84-4.445c0.562-1.28,1.42-2.235,2.568-2.869
		c1.142-0.634,2.393-0.944,3.743-0.944c1.705,0,3.102,0.43,4.184,1.291c1.081,0.86,1.777,2.084,2.083,3.663l-2.583,0.409
		c-0.246-1.062-0.68-1.85-1.31-2.387c-0.624-0.523-1.384-0.791-2.27-0.791c-1.34,0-2.427,0.481-3.268,1.432
		c-0.833,0.966-1.25,2.482-1.25,4.563c0,2.113,0.401,3.644,1.21,4.604c0.81,0.946,1.861,1.426,3.164,1.426
		c1.041,0,1.917-0.312,2.612-0.954C125.227,95.82,125.67,94.843,125.862,93.513z"/>
	<path fill="#FFFFFF" d="M128.854,91.409c0-2.903,0.809-5.053,2.421-6.455c1.349-1.163,2.995-1.741,4.942-1.741
		c2.154,0,3.914,0.696,5.285,2.114c1.37,1.419,2.058,3.366,2.058,5.861c0,2.02-0.309,3.61-0.911,4.77
		c-0.602,1.159-1.482,2.058-2.642,2.697c-1.161,0.639-2.419,0.96-3.79,0.96c-2.207,0-3.976-0.703-5.33-2.115
		C129.531,96.087,128.854,94.058,128.854,91.409z M131.588,91.409c0,2.009,0.438,3.512,1.309,4.519
		c0.883,0.992,1.991,1.495,3.319,1.495c1.321,0,2.417-0.503,3.293-1.502c0.875-1.012,1.312-2.543,1.312-4.604
		c0-1.936-0.44-3.4-1.322-4.406c-0.88-0.995-1.975-1.497-3.283-1.497c-1.326,0-2.437,0.5-3.319,1.487
		C132.027,87.901,131.588,89.4,131.588,91.409z"/>
	<path fill="#FFFFFF" d="M145.278,100.556l2.593,0.394c0.102,0.79,0.407,1.367,0.902,1.74c0.658,0.494,1.562,0.742,2.705,0.742
		c1.225,0,2.179-0.246,2.848-0.742c0.669-0.497,1.124-1.188,1.362-2.073c0.133-0.547,0.198-1.674,0.188-3.416
		c-1.164,1.371-2.604,2.055-4.35,2.055c-2.152,0-3.821-0.771-5-2.335c-1.187-1.561-1.772-3.419-1.772-5.605
		c0-1.494,0.261-2.879,0.808-4.138c0.548-1.262,1.327-2.245,2.365-2.935c1.024-0.692,2.238-1.031,3.616-1.031
		c1.856,0,3.382,0.739,4.588,2.248v-1.897h2.451v13.573c0,2.441-0.249,4.17-0.75,5.184c-0.486,1.027-1.282,1.827-2.357,2.427
		c-1.078,0.584-2.404,0.884-3.98,0.884c-1.876,0-3.387-0.417-4.54-1.27C145.8,103.521,145.236,102.257,145.278,100.556z
		 M147.479,91.125c0,2.063,0.417,3.561,1.231,4.509c0.813,0.95,1.845,1.425,3.069,1.425c1.227,0,2.248-0.472,3.083-1.416
		c0.824-0.942,1.236-2.413,1.236-4.423c0-1.929-0.427-3.369-1.275-4.351c-0.85-0.965-1.885-1.456-3.078-1.456
		c-1.185,0-2.197,0.483-3.02,1.435C147.902,87.811,147.479,89.24,147.479,91.125z"/>
	<path fill="#FFFFFF" d="M164.59,99.257l-4.797-15.693h2.739l2.5,9.063l0.932,3.37c0.042-0.177,0.315-1.255,0.823-3.243l2.484-9.19
		h2.737l2.355,9.098l0.776,3.005l0.902-3.023l2.69-9.081h2.592l-4.904,15.695h-2.768l-2.499-9.397l-0.603-2.675l-3.18,12.072H164.59
		L164.59,99.257z"/>
	<path fill="#FFFFFF" d="M182.648,99.257v-21.66h2.659v7.77c1.249-1.443,2.815-2.153,4.699-2.153c1.164,0,2.172,0.229,3.036,0.68
		c0.854,0.453,1.466,1.099,1.831,1.9c0.377,0.803,0.559,1.977,0.559,3.514v9.95h-2.658v-9.95c0-1.329-0.292-2.288-0.863-2.903
		c-0.584-0.603-1.394-0.908-2.442-0.908c-0.797,0-1.543,0.201-2.231,0.622c-0.689,0.407-1.187,0.954-1.488,1.653
		c-0.299,0.701-0.441,1.672-0.441,2.897v8.589H182.648L182.648,99.257z"/>
	<path fill="#FFFFFF" d="M209.317,94.208l2.753,0.334c-0.434,1.609-1.245,2.849-2.406,3.735c-1.177,0.889-2.669,1.338-4.493,1.338
		c-2.3,0-4.122-0.707-5.467-2.122c-1.343-1.419-2.016-3.399-2.016-5.956c0-2.637,0.68-4.688,2.04-6.14
		c1.36-1.466,3.123-2.185,5.287-2.185c2.102,0,3.812,0.702,5.141,2.136c1.339,1.435,2.007,3.443,2.007,6.028
		c0,0.154-0.005,0.392-0.017,0.711h-11.708c0.09,1.722,0.582,3.039,1.457,3.957c0.877,0.917,1.968,1.376,3.291,1.376
		c0.965,0,1.808-0.258,2.487-0.761C208.361,96.144,208.916,95.333,209.317,94.208z M200.583,89.906h8.766
		c-0.111-1.318-0.455-2.315-0.998-2.974c-0.859-1.02-1.954-1.534-3.306-1.534c-1.214,0-2.249,0.405-3.077,1.219
		C201.139,87.442,200.677,88.535,200.583,89.906z"/>
	<path fill="#FFFFFF" d="M225.242,94.208l2.752,0.334c-0.433,1.609-1.23,2.849-2.405,3.735c-1.177,0.889-2.67,1.338-4.492,1.338
		c-2.3,0-4.123-0.707-5.468-2.122c-1.344-1.419-2.017-3.399-2.017-5.956c0-2.637,0.68-4.688,2.042-6.14
		c1.359-1.466,3.121-2.185,5.285-2.185c2.103,0,3.812,0.702,5.152,2.136c1.331,1.435,1.996,3.443,1.996,6.028
		c0,0.154-0.006,0.392-0.017,0.711h-11.708c0.092,1.722,0.581,3.039,1.457,3.957c0.876,0.917,1.98,1.376,3.29,1.376
		c0.968,0,1.809-0.258,2.501-0.761C224.295,96.144,224.84,95.333,225.242,94.208z M216.509,89.906h8.767
		c-0.113-1.318-0.455-2.315-0.999-2.974c-0.857-1.02-1.955-1.534-3.306-1.534c-1.214,0-2.249,0.405-3.076,1.219
		C217.063,87.442,216.602,88.535,216.509,89.906z"/>
	<path fill="#FFFFFF" d="M230.362,99.257v-21.66h2.671v21.66H230.362z"/>
	<path fill="#FFFFFF" d="M235.18,94.574l2.626-0.412c0.157,1.049,0.566,1.859,1.241,2.421c0.674,0.562,1.622,0.839,2.825,0.839
		c1.228,0,2.136-0.25,2.72-0.736c0.595-0.5,0.888-1.094,0.888-1.763c0-0.597-0.263-1.071-0.776-1.41
		c-0.374-0.236-1.279-0.543-2.721-0.902c-1.959-0.494-3.311-0.919-4.058-1.288c-0.758-0.354-1.325-0.854-1.723-1.488
		c-0.386-0.633-0.579-1.336-0.579-2.111c0-0.688,0.158-1.347,0.481-1.938c0.319-0.592,0.761-1.088,1.308-1.48
		c0.411-0.31,0.981-0.571,1.699-0.781c0.702-0.212,1.475-0.31,2.288-0.31c1.237,0,2.315,0.175,3.25,0.522
		c0.933,0.363,1.62,0.832,2.063,1.447c0.442,0.602,0.74,1.407,0.918,2.43l-2.609,0.35c-0.112-0.801-0.461-1.43-1.021-1.884
		c-0.575-0.453-1.369-0.68-2.408-0.68c-1.218,0-2.088,0.199-2.615,0.602c-0.526,0.401-0.775,0.875-0.775,1.424
		c0,0.337,0.101,0.651,0.318,0.931c0.215,0.277,0.562,0.515,1.026,0.705c0.256,0.099,1.046,0.325,2.343,0.673
		c1.886,0.506,3.196,0.916,3.947,1.242c0.733,0.327,1.325,0.78,1.747,1.399c0.422,0.606,0.635,1.371,0.635,2.278
		c0,0.887-0.261,1.718-0.782,2.493c-0.509,0.79-1.26,1.393-2.239,1.82c-0.967,0.426-2.069,0.649-3.308,0.649
		c-2.041,0-3.594-0.432-4.661-1.275C236.162,97.496,235.479,96.243,235.18,94.574z"/>
	<g>
		<path fill="#FFFFFF" d="M94.816,59.012l-1.052-3.925c-0.228-0.827,0.043-1.69,0.679-2.268c0.886-0.806,1.731-1.689,2.493-2.662
			c0.535-0.658,1.36-0.986,2.202-0.821l4.103,0.783c1.008,0.183,2.016-0.395,2.367-1.339l0.943-2.573l0.951-2.575
			c0.371-0.971-0.022-2.039-0.928-2.558l-3.519-2.04c-0.744-0.432-1.153-1.236-1.114-2.076c0.063-1.236,0.018-2.449-0.107-3.649
			c-0.101-0.84,0.272-1.645,0.975-2.12l3.457-2.348c0.842-0.578,1.157-1.668,0.739-2.597l-1.132-2.471l-1.127-2.471
			c-0.417-0.922-1.448-1.397-2.456-1.147l-3.913,1.088c-0.818,0.228-1.71-0.043-2.279-0.679c-0.808-0.884-1.694-1.733-2.643-2.494
			c-0.659-0.533-0.985-1.362-0.825-2.201l0.782-4.102c0.19-1.009-0.39-2.018-1.337-2.37l-2.574-0.943l-2.574-0.95
			c-0.967-0.371-2.041,0.021-2.551,0.927l-2.018,3.504c-0.433,0.738-1.257,1.17-2.099,1.11c-1.28-0.081-2.536-0.044-3.773,0.125
			c-0.841,0.102-1.69-0.271-2.164-0.974l-2.304-3.414c-0.578-0.848-1.667-1.155-2.596-0.725l-2.471,1.135l-2.47,1.132
			c-0.93,0.409-1.399,1.44-1.158,2.45l1.074,3.999c0.227,0.819-0.041,1.688-0.679,2.244c-0.907,0.82-1.732,1.706-2.493,2.677
			c-0.511,0.657-1.382,0.987-2.201,0.822l-4.036-0.785c-0.995-0.183-1.982,0.373-2.368,1.28l-0.951,2.573l-0.945,2.575
			c-0.375,0.972,0.012,2.039,0.918,2.555l3.57,2.058c0.737,0.434,1.149,1.216,1.112,2.062c-0.068,1.237-0.022,2.451,0.125,3.665
			c0.102,0.848-0.271,1.668-0.973,2.144l-3.416,2.325c-0.849,0.576-1.155,1.672-0.724,2.596l1.135,2.471l1.132,2.471
			c0.409,0.928,1.44,1.405,2.448,1.156l3.998-1.069c0.821-0.226,1.686,0.038,2.246,0.674c0.819,0.908,1.705,1.733,2.679,2.494
			c0.656,0.518,0.984,1.382,0.818,2.208l-0.783,4.036c-0.183,1.004,0.396,2.02,1.34,2.363l2.574,0.949l2.578,0.951
			c0.966,0.363,2.035-0.021,2.553-0.929l2.055-3.562c0.436-0.743,1.236-1.155,2.083-1.132c1.173,0.044,2.324,0,3.48-0.132
			c0.843-0.094,1.668,0.271,2.143,0.973l2.35,3.466c0.575,0.84,1.664,1.154,2.595,0.723l2.47-1.134l2.471-1.133
			C94.589,61.03,95.085,60.006,94.816,59.012z M90.489,39.926c-2.245,6.282-9.141,9.551-15.419,7.329
			c-6.284-2.224-9.56-9.126-7.336-15.407c2.221-6.28,9.125-9.554,15.407-7.328C89.443,26.743,92.716,33.639,90.489,39.926z"/>
		<path fill="#FFFFFF" d="M128.431,64.802l-2.39-0.415c-0.498-0.073-0.907-0.452-1.054-0.936c-0.206-0.682-0.471-1.361-0.803-2.019
			c-0.228-0.455-0.185-0.994,0.106-1.404l1.459-2.019c0.35-0.497,0.291-1.199-0.12-1.607l-1.154-1.156l-1.156-1.153
			c-0.432-0.431-1.11-0.49-1.609-0.141l-1.975,1.398c-0.409,0.292-0.966,0.329-1.397,0.081c-0.642-0.343-1.322-0.614-2-0.864
			c-0.471-0.16-0.82-0.556-0.907-1.052l-0.39-2.45c-0.101-0.593-0.622-1.047-1.214-1.047h-1.629h-1.626
			c-0.598,0-1.133,0.431-1.235,1.027l-0.393,2.387c-0.081,0.519-0.455,0.907-0.945,1.075c-0.681,0.204-1.36,0.468-2.002,0.805
			c-0.455,0.225-0.987,0.183-1.396-0.108l-2.021-1.463c-0.495-0.344-1.195-0.287-1.604,0.123l-1.158,1.156l-1.146,1.155
			c-0.436,0.432-0.498,1.11-0.148,1.607l1.383,1.977c0.286,0.409,0.306,0.973,0.083,1.425c-0.353,0.68-0.659,1.36-0.885,2.05
			c-0.168,0.475-0.558,0.853-1.075,0.929L95.6,64.563c-0.6,0.096-1.053,0.614-1.053,1.206v1.632v1.629
			c0,0.593,0.433,1.133,1.033,1.229l2.433,0.434c0.49,0.088,0.901,0.452,1.049,0.927c0.226,0.703,0.494,1.362,0.823,2.021
			c0.227,0.454,0.185,0.992-0.102,1.403l-1.44,1.997c-0.351,0.495-0.293,1.155,0.102,1.608l1.15,1.155l1.154,1.156
			c0.432,0.431,1.112,0.482,1.609,0.14l1.996-1.427c0.413-0.277,0.949-0.321,1.402-0.074c0.661,0.321,1.319,0.615,2.016,0.843
			c0.472,0.161,0.844,0.548,0.923,1.046l0.396,2.428c0.101,0.606,0.615,1.059,1.214,1.059h1.63h1.624
			c0.596,0,1.134-0.43,1.234-1.038l0.432-2.426c0.083-0.498,0.453-0.907,0.929-1.048c0.701-0.227,1.36-0.497,2.018-0.833
			c0.455-0.226,0.987-0.184,1.403,0.11l1.996,1.447c0.49,0.343,1.191,0.278,1.602-0.133l1.158-1.158l1.154-1.155
			c0.433-0.432,0.493-1.111,0.147-1.596l-1.425-2.01c-0.285-0.408-0.306-0.936-0.083-1.39c0.309-0.628,0.598-1.264,0.803-1.925
			c0.165-0.474,0.558-0.839,1.069-0.926l2.451-0.389c0.6-0.097,1.053-0.615,1.053-1.212v-1.626v-1.63
			C129.458,65.446,129.022,64.905,128.431,64.802z M117.12,72.524c-2.777,2.838-7.328,2.882-10.172,0.109
			c-2.844-2.785-2.882-7.34-0.103-10.178c2.778-2.837,7.335-2.88,10.172-0.109C119.86,65.132,119.905,69.688,117.12,72.524z"/>
		<path fill="#FFFFFF" d="M150.052,53.602l-1.586-0.519c-0.322-0.103-0.57-0.389-0.636-0.74c-0.086-0.496-0.203-0.964-0.351-1.439
			c-0.101-0.33-0.036-0.703,0.212-0.951l1.164-1.235c0.292-0.308,0.315-0.781,0.064-1.111l-0.681-0.907l-0.677-0.906
			c-0.25-0.351-0.704-0.432-1.09-0.248l-1.479,0.765c-0.312,0.162-0.68,0.125-0.971-0.087c-0.413-0.285-0.843-0.554-1.273-0.782
			c-0.312-0.141-0.519-0.454-0.519-0.798l-0.045-1.709c-0.021-0.417-0.32-0.762-0.747-0.828l-1.109-0.16l-1.113-0.169
			c-0.406-0.059-0.794,0.184-0.943,0.599l-0.489,1.587c-0.109,0.327-0.399,0.57-0.74,0.636c-0.501,0.081-0.977,0.205-1.452,0.352
			c-0.32,0.101-0.689,0.036-0.935-0.206l-1.242-1.177c-0.31-0.286-0.783-0.308-1.114-0.058l-0.906,0.678l-0.906,0.679
			c-0.352,0.246-0.432,0.699-0.248,1.093l0.766,1.484c0.163,0.307,0.124,0.697-0.088,0.963c-0.31,0.433-0.571,0.865-0.8,1.316
			c-0.144,0.309-0.474,0.52-0.823,0.534l-1.689,0.044c-0.412,0.02-0.761,0.329-0.827,0.742l-0.16,1.115l-0.167,1.111
			c-0.059,0.409,0.188,0.805,0.597,0.943l1.61,0.519c0.329,0.103,0.573,0.39,0.613,0.738c0.082,0.498,0.207,0.989,0.374,1.463
			c0.104,0.331,0.039,0.702-0.203,0.951l-1.177,1.213c-0.285,0.312-0.308,0.762-0.08,1.089l0.677,0.908l0.682,0.907
			c0.247,0.344,0.696,0.431,1.091,0.249l1.504-0.789c0.307-0.162,0.682-0.118,0.964,0.089c0.417,0.29,0.848,0.555,1.302,0.767
			c0.302,0.14,0.508,0.452,0.508,0.797l0.04,1.687c0.022,0.418,0.34,0.763,0.747,0.828l1.112,0.16l1.11,0.164
			c0.408,0.063,0.798-0.185,0.95-0.595l0.519-1.608c0.095-0.321,0.389-0.571,0.732-0.614c0.499-0.087,0.997-0.206,1.47-0.367
			c0.323-0.109,0.703-0.043,0.943,0.203l1.215,1.167c0.313,0.291,0.79,0.312,1.111,0.064l0.908-0.68l0.906-0.682
			c0.352-0.247,0.43-0.701,0.247-1.089l-0.789-1.501c-0.161-0.313-0.119-0.678,0.085-0.972c0.271-0.387,0.521-0.797,0.749-1.228
			c0.16-0.315,0.476-0.519,0.798-0.519l1.72-0.044c0.407-0.022,0.749-0.329,0.815-0.738l0.163-1.113l0.16-1.114
			C150.712,54.135,150.465,53.741,150.052,53.602z M141.613,57.799c-2.171,1.668-5.276,1.279-6.936-0.907
			c-1.674-2.158-1.289-5.272,0.899-6.94c2.161-1.666,5.27-1.271,6.943,0.907C144.182,53.022,143.772,56.132,141.613,57.799z"/>
	</g>
</g>
</svg>
