<?xml version="1.0" encoding="utf-8"?>
<!-- Generator: Adobe Illustrator 15.1.0, SVG Export Plug-In . SVG Version: 6.00 Build 0)  -->
<svg version="1.2" baseProfile="tiny" id="Layer_1" xmlns="http://www.w3.org/2000/svg" xmlns:xlink="http://www.w3.org/1999/xlink"
	 x="0px" y="0px" width="122px" height="95px" viewBox="0 0 122 95" overflow="inherit" xml:space="preserve">
<g>
	<path fill="#FFFFFF" d="M53.927,63.232l-1.278-4.824c-0.277-1.007,0.044-2.06,0.825-2.773c1.084-0.978,2.106-2.058,3.039-3.247
		c0.657-0.802,1.655-1.212,2.692-1.013l4.988,0.962c1.228,0.225,2.461-0.477,2.882-1.641l1.165-3.157l1.154-3.153
		c0.446-1.177-0.024-2.49-1.127-3.119l-4.306-2.493c-0.897-0.529-1.4-1.511-1.341-2.552c0.071-1.51,0.021-2.999-0.129-4.459
		c-0.124-1.034,0.324-2.017,1.175-2.598l4.222-2.875c1.038-0.707,1.404-2.044,0.908-3.174l-1.381-3.026l-1.39-3.026
		c-0.502-1.14-1.754-1.722-2.98-1.417l-4.772,1.337c-1.009,0.278-2.08-0.045-2.791-0.829c-0.984-1.087-2.065-2.119-3.214-3.051
		c-0.802-0.655-1.206-1.668-0.998-2.7l0.951-5.013c0.222-1.24-0.481-2.473-1.631-2.904L47.45,1.322l-3.137-1.154
		c-1.189-0.449-2.489,0.025-3.117,1.133L38.737,5.59c-0.532,0.909-1.53,1.438-2.566,1.358C34.621,6.842,33.092,6.9,31.582,7.1
		c-1.03,0.125-2.057-0.324-2.631-1.182l-2.817-4.185c-0.702-1.031-2.035-1.413-3.164-0.881L19.958,2.24l-3.011,1.383
		c-1.131,0.507-1.714,1.768-1.408,3l1.3,4.888c0.277,1.015-0.042,2.063-0.826,2.749c-1.102,1.016-2.108,2.098-3.039,3.28
		c-0.627,0.805-1.674,1.211-2.69,1.018L5.369,17.6c-1.203-0.231-2.411,0.447-2.887,1.558l-1.148,3.15L0.17,25.461
		c-0.456,1.183,0.029,2.493,1.13,3.117l4.341,2.528c0.904,0.536,1.413,1.493,1.354,2.52c-0.07,1.512-0.021,3.002,0.151,4.492
		c0.123,1.031-0.323,2.046-1.176,2.627l-4.174,2.848c-1.02,0.706-1.399,2.05-0.876,3.18l1.386,3.024l1.378,3.034
		c0.505,1.118,1.76,1.698,2.985,1.396l4.866-1.307c1.015-0.278,2.074,0.05,2.736,0.823c1.014,1.127,2.091,2.129,3.269,3.065
		c0.806,0.621,1.204,1.687,1.01,2.694l-0.953,4.93c-0.231,1.255,0.475,2.482,1.636,2.916l3.136,1.161l3.125,1.148
		c1.186,0.456,2.499-0.025,3.117-1.137l2.518-4.364c0.519-0.896,1.508-1.396,2.528-1.386c1.426,0.056,2.839,0,4.247-0.133
		c1.037-0.139,2.034,0.317,2.613,1.177l2.864,4.234c0.698,1.028,2.03,1.399,3.162,0.868l3.01-1.382l3.013-1.388
		C53.648,65.712,54.247,64.433,53.927,63.232z M48.657,39.87c-2.737,7.673-11.15,11.689-18.806,8.967
		c-7.662-2.725-11.653-11.169-8.942-18.856c2.713-7.691,11.124-11.696,18.78-8.989C47.373,23.721,51.36,32.169,48.657,39.87z"/>
	<path fill="#FFFFFF" d="M94.902,70.296l-2.911-0.482c-0.606-0.104-1.105-0.554-1.274-1.172c-0.267-0.833-0.593-1.662-0.984-2.466
		c-0.28-0.554-0.225-1.201,0.116-1.718l1.801-2.465c0.417-0.606,0.342-1.457-0.175-1.967l-1.395-1.411l-1.399-1.408
		c-0.541-0.529-1.365-0.605-1.959-0.188l-2.416,1.731c-0.507,0.341-1.183,0.396-1.697,0.104c-0.784-0.445-1.619-0.764-2.447-1.07
		c-0.562-0.206-1.008-0.682-1.103-1.297l-0.481-2.988c-0.122-0.739-0.742-1.293-1.484-1.293H75.12h-1.997
		c-0.721,0-1.376,0.536-1.502,1.261L71.156,56.4c-0.104,0.617-0.557,1.106-1.168,1.307c-0.83,0.249-1.655,0.591-2.429,0.977
		c-0.551,0.274-1.206,0.236-1.706-0.106l-2.465-1.797c-0.6-0.432-1.445-0.357-1.949,0.145l-1.409,1.412l-1.414,1.417
		c-0.53,0.524-0.599,1.352-0.174,1.96l1.682,2.431c0.354,0.5,0.376,1.174,0.107,1.729c-0.429,0.831-0.809,1.663-1.083,2.543
		c-0.198,0.567-0.679,1.017-1.301,1.124l-2.967,0.462c-0.722,0.146-1.278,0.767-1.278,1.498v1.998v1.977
		c0,0.739,0.529,1.39,1.252,1.53l2.959,0.529c0.608,0.092,1.116,0.55,1.29,1.134c0.273,0.854,0.593,1.664,0.993,2.468
		c0.277,0.553,0.231,1.201-0.125,1.716l-1.757,2.452c-0.426,0.591-0.346,1.396,0.124,1.953l1.418,1.411l1.403,1.412
		c0.525,0.527,1.353,0.616,1.95,0.188l2.443-1.732c0.502-0.367,1.15-0.42,1.705-0.119c0.806,0.414,1.605,0.767,2.451,1.045
		c0.594,0.205,1.04,0.684,1.141,1.293l0.477,2.979C71.443,94.448,72.083,95,72.812,95h1.967h1.997c0.719,0,1.379-0.524,1.506-1.252
		l0.525-2.97c0.088-0.606,0.553-1.112,1.129-1.298c0.854-0.279,1.654-0.604,2.452-0.998c0.558-0.276,1.208-0.227,1.709,0.12
		l2.442,1.755c0.604,0.432,1.453,0.368,1.963-0.135l1.398-1.415l1.404-1.411c0.536-0.528,0.614-1.359,0.169-1.992l-1.717-2.455
		c-0.353-0.473-0.38-1.145-0.107-1.698c0.381-0.74,0.718-1.518,0.98-2.339c0.204-0.567,0.675-1.028,1.304-1.12l2.991-0.486
		c0.724-0.146,1.275-0.768,1.275-1.507V73.81v-1.977C96.166,71.095,95.635,70.445,94.902,70.296z M81.119,79.771
		c-3.383,3.494-8.941,3.538-12.404,0.12c-3.467-3.397-3.518-8.964-0.132-12.452c3.4-3.479,8.94-3.53,12.406-0.119
		C84.453,70.726,84.509,76.293,81.119,79.771z"/>
	<path fill="#FFFFFF" d="M121.257,56.599l-1.931-0.62c-0.402-0.135-0.707-0.489-0.771-0.917c-0.094-0.602-0.261-1.193-0.451-1.763
		c-0.106-0.408-0.031-0.854,0.265-1.162l1.445-1.512c0.342-0.379,0.371-0.958,0.067-1.359l-0.826-1.11l-0.823-1.106
		c-0.307-0.43-0.857-0.537-1.339-0.303l-1.815,0.92c-0.366,0.212-0.826,0.154-1.166-0.092c-0.517-0.354-1.036-0.678-1.572-0.955
		c-0.37-0.187-0.621-0.556-0.621-0.976l-0.038-2.109c-0.027-0.496-0.419-0.931-0.912-1.005l-1.347-0.203l-1.355-0.199
		c-0.508-0.08-0.994,0.231-1.186,0.726l-0.582,1.939c-0.12,0.406-0.459,0.717-0.902,0.784c-0.597,0.105-1.175,0.258-1.753,0.43
		c-0.404,0.125-0.867,0.057-1.163-0.252l-1.498-1.432c-0.401-0.362-0.958-0.381-1.352-0.084l-1.11,0.831l-1.109,0.847
		c-0.421,0.302-0.522,0.855-0.306,1.329l0.938,1.81c0.199,0.381,0.146,0.873-0.092,1.191c-0.385,0.537-0.724,1.061-1.003,1.616
		c-0.165,0.382-0.562,0.62-0.99,0.659l-2.062,0.041c-0.503,0.024-0.933,0.405-1.001,0.905l-0.207,1.364l-0.195,1.356
		c-0.082,0.512,0.222,0.99,0.733,1.176l1.955,0.616c0.396,0.133,0.711,0.49,0.746,0.911c0.106,0.609,0.267,1.217,0.459,1.797
		c0.122,0.405,0.054,0.858-0.26,1.147l-1.417,1.489c-0.363,0.37-0.383,0.923-0.103,1.346l0.821,1.106l0.828,1.109
		c0.304,0.434,0.849,0.529,1.336,0.307l1.83-0.954c0.379-0.21,0.83-0.155,1.158,0.099c0.517,0.34,1.043,0.664,1.594,0.922
		c0.395,0.182,0.646,0.552,0.646,0.989l0.05,2.048c0.011,0.521,0.384,0.958,0.894,1.022l1.354,0.209l1.36,0.216
		c0.498,0.064,0.945-0.243,1.146-0.74l0.628-1.966c0.128-0.421,0.471-0.712,0.919-0.767c0.595-0.092,1.2-0.248,1.775-0.462
		c0.403-0.12,0.843-0.036,1.131,0.249l1.507,1.468c0.367,0.341,0.947,0.367,1.352,0.063l1.113-0.832l1.107-0.832
		c0.397-0.3,0.519-0.854,0.283-1.343l-0.932-1.848c-0.209-0.37-0.172-0.829,0.089-1.173c0.319-0.486,0.621-0.989,0.899-1.526
		c0.208-0.373,0.578-0.621,0.98-0.621l2.08-0.044c0.5-0.026,0.939-0.406,1.008-0.919l0.211-1.363l0.208-1.342
		C122.073,57.257,121.775,56.78,121.257,56.599z M110.958,61.742c-2.615,2.046-6.409,1.57-8.45-1.11
		c-2.034-2.652-1.554-6.45,1.092-8.495c2.643-2.043,6.436-1.566,8.462,1.11C114.103,55.896,113.605,59.7,110.958,61.742z"/>
</g>
</svg>
